<svg width="100" height="100" viewBox="0 0 100 100" fill="none" xmlns="http://www.w3.org/2000/svg">
<rect width="100" height="100" fill="#000A14"/>
<path d="M91.8 21.8H81.6V16.1C81.6 14.4 80.1 12.9 78.3 12.9H8.1C6.4 12.9 5 14.4 5 16.1V77.2C5 82.6 9.5 87.1 14.9 87.1H85.1C90.5 87 95 82.7 95 77.2V24.9C95 23.2 93.6 21.8 91.8 21.8ZM14.9 80.6C13 80.6 11.5 79.1 11.5 77.2V19.4H75.2V77.2C75.2 78.3 75.4 79.5 75.8 80.6H14.9ZM88.5 77.2C88.5 79.1 87 80.6 85 80.6C83.1 80.6 81.5 79.1 81.5 77.2V28.2H88.5V77.2ZM45.5 54.7H68.7V49H45.5V54.7ZM45.5 69.5H68.7V63.8H45.5V69.5ZM17.8 28.6V40H68.7V28.6H17.8ZM17.8 69.5H39.3V49.1H17.8V69.5Z" fill="#EBF5FF"/>
</svg>
