<svg width="347" height="1355" viewBox="0 0 347 1355" fill="none" xmlns="http://www.w3.org/2000/svg">
<path d="M43.4262 1300.53C46.872 1263.27 77.5228 833.194 70.7816 509.223C70.5575 498.454 78.8434 489.416 89.523 488.017C119.484 484.092 175.998 473.131 195.834 445C214.938 417.908 259.135 406.981 284.343 402.835C294.714 401.129 301.971 407.386 301.244 417.871C299.631 441.118 296.381 493.659 289.834 611C277.75 827.587 297.204 1246.37 300.005 1304.29C300.222 1308.79 298.925 1313.01 295.899 1316.34C291.665 1321 284.431 1328.01 274.334 1334.5C257.223 1345.5 218.834 1355 164.834 1355C110.834 1355 80.8339 1347.33 62.3339 1334.5C46.5491 1323.55 43.8685 1307.26 43.4216 1302.72C43.3415 1301.9 43.3508 1301.35 43.4262 1300.53Z" fill="url(#paint0_linear_92_75)"/>
<path d="M173.667 0L188.975 163.045L261.761 111.907L210.623 184.693L347.001 200L210.623 215.307L261.761 288.093L188.975 236.955L173.667 400L158.36 236.955L72.2407 288.093L136.712 215.307L0.333984 200L136.712 184.693L85.574 111.907L158.36 163.045L173.667 0Z" fill="url(#paint1_radial_92_75)"/>
<defs>
<linearGradient id="paint0_linear_92_75" x1="172.33" y1="402.556" x2="172.33" y2="1355" gradientUnits="userSpaceOnUse">
<stop stop-color="#CED8E2"/>
<stop offset="1" stop-color="#1E2832"/>
</linearGradient>
<radialGradient id="paint1_radial_92_75" cx="0" cy="0" r="1" gradientUnits="userSpaceOnUse" gradientTransform="translate(173.667 200) rotate(90) scale(200 173.333)">
<stop stop-color="#EBF5FF"/>
<stop offset="1" stop-color="#76808A"/>
</radialGradient>
</defs>
</svg>
