<svg width="400" height="1462" viewBox="0 0 400 1462" fill="none" xmlns="http://www.w3.org/2000/svg">
<path d="M75.0774 1405.1C78.343 1366.96 108.006 915.122 101.423 575.401C101.215 564.69 109.438 555.699 120.042 554.172C149.042 549.996 202.927 538.479 221.917 509.21C240.183 481.057 282.263 469.576 306.636 465.161C316.932 463.296 324.205 469.346 323.533 479.789C322.002 503.601 318.873 558.416 312.476 683.015C300.788 910.693 319.727 1351.77 322.306 1409.62C322.494 1413.82 321.365 1417.83 318.687 1421.08C314.666 1425.94 307.57 1433.53 297.543 1440.54C281.059 1452.05 244.075 1462 192.052 1462C140.029 1462 111.127 1453.97 93.3044 1440.54C77.9262 1428.94 75.4583 1411.63 75.0707 1407.1C75.0064 1406.35 75.013 1405.85 75.0774 1405.1Z" fill="url(#paint0_linear_1060_476)"/>
<path d="M200 0L217.662 188.129L301.646 129.123L242.641 213.107L400 230.769L242.641 248.431L301.646 332.415L217.662 273.41L200 461.538L182.338 273.41L82.9692 332.415L157.359 248.431L0 230.769L157.359 213.107L98.3539 129.123L182.338 188.129L200 0Z" fill="url(#paint1_radial_1060_476)"/>
<defs>
<linearGradient id="paint0_linear_1060_476" x1="200" y1="462" x2="200" y2="1462" gradientUnits="userSpaceOnUse">
<stop stop-color="#B5BFC9"/>
<stop offset="1" stop-color="#000A14" stop-opacity="0.5"/>
</linearGradient>
<radialGradient id="paint1_radial_1060_476" cx="0" cy="0" r="1" gradientUnits="userSpaceOnUse" gradientTransform="translate(200 230.769) rotate(90) scale(230.769 200)">
<stop stop-color="#EBF5FF"/>
<stop offset="1" stop-color="#36404A"/>
</radialGradient>
</defs>
</svg>
