<svg width="117" height="80" viewBox="0 0 117 80" fill="none" xmlns="http://www.w3.org/2000/svg">
<path d="M2.54411 76.784C2.74755 74.5842 4.5572 49.1922 4.15919 30.0648C4.14596 29.429 4.63517 28.8954 5.2657 28.8128C7.03461 28.581 10.3712 27.9339 11.5424 26.273C12.6703 24.6735 15.2797 24.0283 16.768 23.7836C17.3803 23.6828 17.8088 24.0523 17.7658 24.6713C17.6706 26.0438 17.4787 29.1459 17.0922 36.0737C16.3787 48.8612 17.5273 73.5864 17.6927 77.006C17.7055 77.2717 17.6289 77.5209 17.4503 77.7175C17.2003 77.9926 16.7732 78.4065 16.177 78.7896C15.1668 79.4391 12.9003 80 9.7121 80C6.52391 80 4.75269 79.5471 3.66043 78.7896C2.72849 78.1431 2.57023 77.1814 2.54384 76.9133C2.53911 76.8649 2.53966 76.8324 2.54411 76.784Z" fill="url(#paint0_linear_93_3)"/>
<path d="M10.2337 0L11.1375 9.62629L15.4348 6.60706L12.4156 10.9044L20.4674 11.8081L12.4156 12.7119L15.4348 17.0092L11.1375 13.99L10.2337 23.6163L9.32995 13.99L4.24541 17.0092L8.05184 12.7119L0 11.8081L8.05184 10.9044L5.03262 6.60706L9.32995 9.62629L10.2337 0Z" fill="url(#paint1_radial_93_3)"/>
<path d="M38.7482 30.5165C38.5329 30.7164 38.2869 30.8779 38.0101 31.0009C37.7334 31.1085 37.4182 31.1623 37.0646 31.1623C36.7109 31.1623 36.4034 31.0316 36.1421 30.7702C35.8961 30.4935 35.7731 30.186 35.7731 29.8477C35.7731 29.5095 35.8346 29.2097 35.9576 28.9483C36.0806 28.6869 36.2497 28.4563 36.4649 28.2564C36.9108 27.7951 37.3951 27.5645 37.9179 27.5645C38.456 27.5645 38.8481 27.7106 39.0941 28.0027C39.3555 28.2795 39.4862 28.587 39.4862 28.9252C39.4862 29.2635 39.417 29.5633 39.2786 29.8247C39.1556 30.086 38.9788 30.3167 38.7482 30.5165ZM24.1033 50.0507C24.1033 50.5273 24.5569 50.7656 25.464 50.7656C26.3712 50.7656 27.2245 50.5581 28.024 50.1429C28.8389 49.7278 29.6537 49.2127 30.4686 48.5977C31.2989 47.9673 32.0984 47.2831 32.8672 46.5451L34.9428 44.4695C35.5578 43.8237 36.0652 43.2702 36.4649 42.809C36.8647 42.3324 37.103 42.0556 37.1799 41.9787L37.6411 42.3939C37.4874 42.5476 37.1953 42.8782 36.7648 43.3855C36.3496 43.8776 35.8269 44.4618 35.1965 45.1383C34.5661 45.7994 33.8589 46.499 33.0747 47.237C32.2906 47.975 31.468 48.6515 30.607 49.2665C28.6236 50.6964 26.8862 51.4114 25.3948 51.4114C24.4416 51.4114 23.6805 51.2423 23.1116 50.904C22.5427 50.5504 22.2583 50.1506 22.2583 49.7047C22.2583 49.2589 22.3044 48.8591 22.3967 48.5055C22.4889 48.1518 22.6581 47.729 22.9041 47.237C23.1501 46.745 23.496 46.1685 23.9419 45.5073C24.3724 44.8462 24.9413 44.0544 25.6485 43.1319C26.3404 42.2094 27.186 41.1408 28.1854 39.9261L31.7371 35.7287C31.9216 35.7748 32.2983 35.7979 32.8672 35.7979H33.9511C34.3509 35.7979 34.6737 35.7825 34.9197 35.7518C29.8306 41.825 26.9708 45.2844 26.3404 46.13C25.6946 46.9603 25.218 47.6137 24.9105 48.0903C24.3724 48.9052 24.1033 49.5587 24.1033 50.0507Z" fill="#EBF5FF"/>
<path d="M35.9806 48.0442C35.5501 53.5793 34.2663 58.4993 32.1291 62.8044C30.7454 65.6026 29.1925 67.5553 27.4705 68.6623C26.5941 69.2312 25.7715 69.5156 25.0028 69.5156C24.234 69.5156 23.6421 69.3004 23.2269 68.8699C22.7964 68.4547 22.5735 67.9781 22.5581 67.44C22.5427 66.9172 22.5812 66.4175 22.6734 65.9409C22.7503 65.4643 22.9348 64.8954 23.2269 64.2343C23.5037 63.5885 23.8958 62.8044 24.4031 61.8819C24.8951 60.9747 25.5409 59.8754 26.3404 58.5839L29.2232 54.0405L35.3118 44.8154C34.8506 44.0928 34.5354 43.3702 34.3662 42.6475C34.1971 41.9249 34.151 41.333 34.2279 40.8717C34.2894 40.4105 34.4508 40.0261 34.7122 39.7186C34.9736 39.3957 35.2964 39.2343 35.6808 39.2343C36.0498 39.2343 36.3573 39.3573 36.6033 39.6033C36.8339 39.8493 36.9493 40.126 36.9493 40.4335C36.9493 40.741 36.9108 41.0101 36.8339 41.2407C36.7417 41.456 36.6264 41.6635 36.488 41.8634C36.1651 42.3554 35.8192 42.6937 35.4502 42.8782C35.5117 43.2164 35.6424 43.5931 35.8422 44.0082L47.166 26.4575C48.1501 24.9354 49.2955 23.3517 50.6024 21.7066C51.9247 20.0614 53.047 18.7776 53.9696 17.8551C55.9068 15.9178 57.4443 14.9492 58.5821 14.9492C59.2432 14.9492 59.7352 15.1414 60.0581 15.5258C60.381 15.9102 60.5578 16.5175 60.5886 17.3477C60.6193 18.1626 60.3272 19.3004 59.7122 20.761C59.0972 22.2063 58.2515 23.7515 57.1753 25.3966C56.099 27.0264 54.8383 28.7023 53.393 30.4243C51.9631 32.1309 50.441 33.7915 48.8266 35.4058C45.4133 38.7576 42.1076 41.4483 38.9096 43.4778L37.2721 46.0147C38.0101 46.6451 38.9711 46.9987 40.155 47.0756C41.3542 47.1525 42.492 47.0295 43.5683 46.7066C44.6445 46.3683 45.5901 45.9378 46.405 45.4151C47.512 44.6924 48.6882 43.5624 49.9336 42.0248L50.464 42.3939C50.2949 42.5476 50.0643 42.8013 49.7721 43.1549C49.48 43.5086 49.111 43.9006 48.6651 44.3311C48.2346 44.7463 47.7272 45.1768 47.143 45.6226C46.5741 46.0531 45.9207 46.4375 45.1827 46.7758C43.5375 47.5445 41.7463 47.829 39.809 47.6291C38.702 47.5061 37.7411 47.1525 36.9262 46.5682L35.9806 48.0442ZM39.7399 42.1863C44.1833 39.1574 48.5652 34.9523 52.8856 29.571C56.0529 25.6349 58.1208 22.2293 59.0895 19.3542C59.6891 17.5707 59.7276 16.3868 59.2048 15.8025C59.0049 15.5873 58.7666 15.4796 58.4899 15.4796C58.2285 15.4796 57.9287 15.5873 57.5904 15.8025C57.2522 16.0024 56.837 16.3714 56.345 16.9095C55.3764 17.9858 54.1848 19.6309 52.7703 21.845L39.7399 42.1863ZM35.2196 49.1974L27.4474 61.0977L25.6024 64.142C24.4954 66.0639 23.9419 67.34 23.9419 67.9704C23.9419 68.2318 24.0418 68.4547 24.2417 68.6392C24.4262 68.8391 24.7106 68.9391 25.095 68.9391C25.464 68.9391 25.9637 68.7238 26.5941 68.2933C27.2091 67.8628 27.8702 67.2478 28.5775 66.4483C29.2694 65.6488 29.9766 64.6648 30.6993 63.4963C31.4065 62.3431 32.0676 61.0362 32.6827 59.5756C34.0357 56.3161 34.8813 52.8566 35.2196 49.1974Z" fill="#EBF5FF"/>
<path d="M47.4889 50.0276C47.4889 50.4889 47.8579 50.7272 48.5959 50.7426C49.3339 50.7579 50.072 50.5965 50.81 50.2582C51.5633 49.92 52.309 49.4895 53.047 48.9667C53.7851 48.444 54.5 47.8597 55.1919 47.214C55.8838 46.5528 56.5295 45.8994 57.1292 45.2536C57.7288 44.6079 58.2669 44.0006 58.7435 43.4317L59.9428 42.0018L60.4502 42.3939L59.2509 43.7776C54.9613 48.8668 51.3558 51.4114 48.4345 51.4114C47.5889 51.4114 46.9585 51.2423 46.5434 50.904C46.1129 50.5657 45.8976 50.1967 45.8976 49.797C45.8976 49.3972 45.9207 49.0667 45.9668 48.8053C45.9975 48.5439 46.0744 48.2595 46.1974 47.952C46.3204 47.6291 46.5049 47.2524 46.7509 46.8219C46.9815 46.3914 47.2967 45.8686 47.6965 45.2536L51.2943 40.0645L57.2445 31.6927H55.4225C54.9613 31.6927 54.7306 31.5851 54.7306 31.3699C54.7306 31.1392 55.0228 31.0239 55.607 31.0239H57.7057L61.9723 25.0276C63.0486 25.1967 64.1172 25.1967 65.178 25.0276L60.7269 31.0239H66.6771C67.1076 31.0239 67.3229 31.1392 67.3229 31.3699C67.3229 31.5851 67.1307 31.6927 66.7463 31.6927H60.2196L50.6716 44.6771C49.0264 46.9987 48.0886 48.4286 47.8579 48.9667C47.6119 49.5049 47.4889 49.8585 47.4889 50.0276Z" fill="#EBF5FF"/>
<path d="M68.7066 49.3819C67.738 49.9969 66.6848 50.5042 65.547 50.904C64.4247 51.3038 63.3561 51.5036 62.3413 51.5036C61.3266 51.5036 60.5501 51.4037 60.012 51.2038C59.4892 50.9886 59.0587 50.6964 58.7205 50.3274C57.2752 48.7592 57.2829 46.4452 58.7435 43.3855C59.3739 42.0325 60.3272 40.8025 61.6033 39.6955C62.8795 38.5731 64.0018 37.7352 64.9705 37.1817C66.8462 36.1054 68.6067 35.5673 70.2518 35.5673C71.8816 35.5673 72.7349 36.0747 72.8118 37.0894C72.9194 38.7346 70.9207 40.5258 66.8155 42.463C65.3087 43.1703 63.4099 43.9006 61.119 44.654C60.2119 46.13 59.7583 47.337 59.7583 48.2748C59.7583 49.1974 59.9966 49.8585 60.4732 50.2582C60.9653 50.6426 61.6725 50.8348 62.595 50.8348C63.5329 50.8348 64.54 50.6349 65.6162 50.2352C66.7079 49.8354 67.7226 49.328 68.6605 48.713C69.6138 48.098 70.4748 47.4292 71.2435 46.7066C72.0123 45.9839 72.6888 45.2921 73.2731 44.6309C73.8727 43.9698 74.357 43.4009 74.726 42.9243C75.1104 42.4323 75.3718 42.1248 75.5101 42.0018L75.9945 42.3939C75.7946 42.563 75.4871 42.9089 75.072 43.4317C74.6722 43.9544 74.1571 44.5541 73.5268 45.2306C72.9117 45.8917 72.1968 46.5913 71.3819 47.3293C70.5824 48.0673 69.6907 48.7515 68.7066 49.3819ZM61.6494 43.8468C66.2927 42.217 69.2832 40.595 70.6208 38.9806C71.0667 38.4424 71.2897 37.9197 71.2897 37.4123C71.2897 36.5513 70.8899 36.1208 70.0904 36.1208C68.6759 36.1208 66.9077 37.3585 64.786 39.8339C63.31 41.5559 62.2645 42.8935 61.6494 43.8468Z" fill="#EBF5FF"/>
<path d="M84.1587 45.0922C80.3918 49.305 77.3936 51.4114 75.1642 51.4114C73.2116 51.4114 72.2352 50.4043 72.2352 48.3902C72.2352 46.0531 73.1962 43.793 75.1181 41.6097C78.5775 37.5814 82.2291 35.5673 86.0729 35.5673C87.226 35.5673 88.0793 35.9209 88.6328 36.6282C88.802 36.8588 88.8865 37.074 88.8865 37.2739C88.8865 37.4738 88.8788 37.6045 88.8635 37.666C88.8635 37.7121 88.8635 37.7736 88.8635 37.8505L100.303 21.4298L105.146 14.5802C105.715 14.8262 106.245 14.9492 106.737 14.9492C107.229 14.9492 107.675 14.9261 108.075 14.88L86.1651 45.5996C85.2734 46.7988 84.5969 47.7521 84.1356 48.4594C83.6897 49.1512 83.4668 49.7047 83.4668 50.1199C83.4668 50.5196 83.659 50.7195 84.0434 50.7195C85.5347 50.7195 87.226 50.0276 89.1172 48.6439C90.8546 47.3831 92.7534 45.4919 94.8137 42.9704C95.198 42.4784 95.4671 42.1555 95.6208 42.0018L96.1282 42.3939C95.9591 42.563 95.6593 42.9012 95.2288 43.4086C94.8137 43.916 94.2909 44.5002 93.6605 45.1614C93.0455 45.8225 92.3459 46.5221 91.5618 47.2601C90.7931 47.9981 89.9705 48.6746 89.0941 49.2896C87.1107 50.7041 85.3579 51.4114 83.8358 51.4114C82.329 51.4114 81.5833 50.9194 81.5987 49.9354C81.6141 48.936 82.5289 47.3523 84.3432 45.1844L84.1587 45.0922ZM77.4705 43.1549C75.2718 45.8302 74.1725 47.9673 74.1725 49.5664C74.1725 50.3351 74.5569 50.7195 75.3256 50.7195C76.694 50.7195 78.6006 49.6048 81.0452 47.3754L82.9363 45.5534C84.028 44.4772 84.9197 43.4471 85.6116 42.463L87.6642 39.5341C88.0178 38.8268 88.1946 38.2195 88.1946 37.7121C88.1946 37.2047 88.0101 36.8434 87.6411 36.6282C87.2721 36.3975 86.8878 36.2822 86.488 36.2822C86.0883 36.2822 85.5809 36.4206 84.9659 36.6974C84.3662 36.9587 83.682 37.3739 82.9133 37.9427C81.2374 39.142 79.4231 40.8794 77.4705 43.1549Z" fill="#EBF5FF"/>
<path d="M104.661 51.4114C103.124 51.4114 102.355 50.9347 102.355 49.9815C102.355 49.1974 102.801 48.2133 103.693 47.0295L105.146 45.1844L104.915 45.0922C102.332 48.2748 99.8951 50.2736 97.6042 51.0885C96.9739 51.3038 96.428 51.4114 95.9668 51.4114C94.0756 51.4114 93.1301 50.4043 93.1301 48.3902C93.1301 46.0224 94.0756 43.7622 95.9668 41.6097C98.7651 38.3502 101.579 36.4206 104.408 35.821C105.253 35.6518 105.976 35.5673 106.576 35.5673C107.175 35.5673 107.644 35.6134 107.982 35.7057C108.336 35.7825 108.644 35.8979 108.905 36.0516C109.458 36.4052 109.735 36.8434 109.735 37.3662C109.735 37.8736 109.643 38.3579 109.458 38.8191L111.719 36.0285C112.134 36.1515 112.518 36.213 112.872 36.213C113.779 36.213 114.432 36.1823 114.832 36.1208L107.06 45.4843C105.215 47.6368 104.292 49.1512 104.292 50.0276C104.292 50.5196 104.585 50.7656 105.169 50.7656C105.753 50.7656 106.422 50.5888 107.175 50.2352C107.944 49.8815 108.705 49.428 109.458 48.8745C110.212 48.321 110.942 47.706 111.649 47.0295C112.372 46.353 113.033 45.6918 113.633 45.0461C114.248 44.4003 114.786 43.8007 115.247 43.2472L116.354 42.0018L116.839 42.3939L115.662 43.7315C111.234 48.8514 107.567 51.4114 104.661 51.4114ZM98.2731 43.1088C96.1052 45.7379 95.0212 47.8905 95.0212 49.5664C95.0212 50.3351 95.3672 50.7195 96.059 50.7195C98.3038 50.7195 101.54 48.2364 105.768 43.2702L107.706 40.9409C108.628 39.5418 109.089 38.527 109.089 37.8966C109.089 36.8204 108.551 36.2822 107.475 36.2822C106.014 36.2822 103.916 37.5276 101.179 40.0184C100.241 40.8794 99.2724 41.9095 98.2731 43.1088Z" fill="#EBF5FF"/>
<defs>
<linearGradient id="paint0_linear_93_3" x1="10.1547" y1="23.7671" x2="10.1547" y2="80" gradientUnits="userSpaceOnUse">
<stop stop-color="#EBF5FF"/>
<stop offset="1" stop-color="#3B454F"/>
</linearGradient>
<radialGradient id="paint1_radial_93_3" cx="0" cy="0" r="1" gradientUnits="userSpaceOnUse" gradientTransform="translate(10.2337 11.8081) rotate(90) scale(11.8081 10.2337)">
<stop stop-color="#EBF5FF"/>
<stop offset="1" stop-color="#B1BBC5"/>
</radialGradient>
</defs>
</svg>
