<svg width="1500" height="1500" viewBox="0 0 1500 1500" fill="none" xmlns="http://www.w3.org/2000/svg">
<path d="M310.583 916.022C312.387 894.075 326.43 678.493 323.877 511.302C323.714 500.589 331.955 491.583 342.456 489.457C357.153 486.482 376.272 480.451 383.959 468.605C391.094 457.608 405.496 451.699 417.266 448.587C427.383 445.912 434.815 452.739 434.197 463.184C433.301 478.318 431.789 505.812 429.238 555.508C423.577 665.786 432.286 876.193 434.009 915.542C434.193 919.743 433.082 923.899 430.203 926.964C428.147 929.153 425.328 931.783 421.772 934.268C413.529 940.027 395.038 945 369.026 945C343.014 945 328.564 940.985 319.652 934.268C312.499 928.876 310.933 921.01 310.593 918.115C310.505 917.366 310.521 916.773 310.583 916.022Z" fill="url(#paint0_linear_1061_342)"/>
<path d="M373 214L381.831 308.064L423.823 278.562L394.32 320.553L473 329.385L394.32 338.216L423.823 380.208L381.831 350.705L373 444.769L364.169 350.705L314.485 380.208L351.68 338.216L273 329.385L351.68 320.553L322.177 278.562L364.169 308.064L373 214Z" fill="url(#paint1_radial_1061_342)"/>
<path d="M403.822 873.6C266.222 974.933 169.689 1058.4 114.222 1124C96.3552 1145.33 83.1552 1162.4 74.6218 1175.2C66.0885 1188.27 59.4218 1201.07 54.6218 1213.6C49.8218 1226.4 47.1552 1235.33 46.6219 1240.4C45.8218 1245.73 45.4218 1251.73 45.4218 1258.4C45.4218 1265.33 46.0885 1273.73 47.4218 1283.6C48.7552 1293.47 50.8885 1304.27 53.8219 1316C56.4885 1328 60.8885 1338 67.0219 1346C73.1552 1354.27 80.3552 1358.4 88.6219 1358.4C100.089 1358.4 116.889 1350 139.022 1333.2C160.889 1316.67 176.889 1300.27 187.022 1284C209.155 1249.6 245.289 1182.53 295.422 1082.8C345.289 983.067 381.422 913.333 403.822 873.6ZM583.822 738.4C586.222 736.8 587.689 736 588.222 736C589.022 736 589.422 736.533 589.422 737.6C589.422 738.667 588.622 739.733 587.022 740.8C569.422 751.733 524.355 783.733 451.822 836.8C298.755 1121.07 212.622 1274.67 193.422 1297.6C174.222 1320.8 151.555 1340 125.422 1355.2C99.0219 1370.67 80.8885 1378.4 71.0218 1378.4C60.8885 1378.4 52.3552 1374.13 45.4218 1365.6C38.2218 1357.6 32.8885 1346.93 29.4219 1333.6C23.0218 1309.33 19.8218 1283.73 19.8218 1256.8C19.8218 1227.47 32.6218 1195.47 58.2218 1160.8C71.0219 1143.73 84.6219 1127.07 99.0218 1110.8C113.155 1094.8 130.622 1077.6 151.422 1059.2C171.955 1040.8 190.622 1024.53 207.422 1010.4C223.955 996.267 243.822 980.4 267.022 962.8C289.955 945.467 308.355 931.733 322.222 921.6C335.822 911.733 352.889 899.6 373.422 885.2C393.689 870.533 406.755 861.067 412.622 856.8C434.222 811.733 473.422 735.733 530.222 628.8C587.022 521.6 629.155 447.467 656.622 406.4C684.089 365.333 708.489 336.8 729.822 320.8C751.155 304.8 774.222 296.8 799.022 296.8C807.555 296.8 814.755 299.733 820.622 305.6C829.689 315.2 834.222 325.867 834.222 337.6C834.222 349.333 832.889 358.933 830.222 366.4C827.555 373.6 823.022 382.4 816.622 392.8C814.489 397.067 809.289 401.067 801.022 404.8C796.489 406.667 793.422 407.6 791.822 407.6C791.022 407.6 790.622 407.333 790.622 406.8C790.622 406.533 790.755 406.133 791.022 405.6C797.155 395.733 801.289 387.333 803.422 380.4C805.822 373.2 807.022 364.267 807.022 353.6C807.022 342.933 803.822 333.467 797.422 325.2C791.022 316.933 783.422 312.8 774.622 312.8C766.089 312.8 757.822 314.533 749.822 318C742.089 321.467 733.422 328.267 723.822 338.4C714.489 348.267 705.289 359.6 696.222 372.4C687.422 384.933 676.355 403.067 663.022 426.8C637.689 471.333 607.289 528.533 571.822 598.4L458.222 824L583.822 738.4Z" fill="#EBF5FF"/>
<path d="M582.378 743.2C581.845 743.2 581.578 742.667 581.578 741.6C581.578 740.533 582.245 739.467 583.578 738.4C587.578 735.733 591.578 732.933 595.578 730C599.845 727.067 616.511 723.2 645.578 718.4L710.378 598.4C713.578 591.733 718.111 585.733 723.978 580.4C729.311 574.8 734.645 572 739.978 572C740.245 572 740.645 572 741.178 572C745.711 572 747.978 573.067 747.978 575.2C747.978 577.333 741.311 589.733 727.978 612.4C714.645 635.067 696.245 669.067 672.778 714.4L747.978 702.4C749.578 702.4 750.378 702.667 750.378 703.2C750.378 704.8 748.378 706.8 744.378 709.2C740.645 711.6 737.711 712.8 735.578 712.8C733.445 712.8 710.911 716.267 667.978 723.2L629.578 803.2C615.178 835.2 607.978 856 607.978 865.6C607.978 875.2 610.778 883.067 616.378 889.2C621.978 895.333 629.045 898.4 637.578 898.4C658.378 898.4 675.445 894.667 688.778 887.2C702.378 879.733 716.511 869.467 731.178 856.4C746.111 843.333 758.112 831.733 767.178 821.6C776.511 811.2 781.978 804.8 783.578 802.4C785.445 799.733 786.911 798.4 787.978 798.4C789.045 798.4 789.578 798.8 789.578 799.6C789.578 800.4 789.311 801.333 788.778 802.4C775.978 819.2 762.645 834.267 748.778 847.6C734.911 860.667 722.778 871.067 712.378 878.8C702.245 886.533 689.445 893.2 673.978 898.8C658.778 904.4 643.311 907.2 627.578 907.2C612.111 907.2 599.845 903.733 590.778 896.8C581.978 889.867 577.578 878.933 577.578 864C577.578 849.067 585.311 828 600.778 800.8L639.178 729.6C605.578 736.267 587.845 740.267 585.978 741.6C584.378 742.667 583.178 743.2 582.378 743.2Z" fill="#EBF5FF"/>
<path d="M744.763 848.8L728.763 861.6C728.229 861.6 727.962 861.067 727.962 860C727.962 858.933 728.896 857.467 730.763 855.6C732.629 853.733 737.829 849.6 746.362 843.2C752.496 824 761.696 805.867 773.962 788.8C786.229 771.733 798.763 758 811.562 747.6C824.362 736.933 836.496 728.667 847.962 722.8C859.429 716.667 868.496 713.6 875.162 713.6C889.029 713.6 895.962 718.933 895.962 729.6C895.962 733.6 894.496 737.733 891.562 742C888.629 746 883.162 751.067 875.162 757.2C867.429 763.333 859.963 768.933 852.763 774C845.829 778.8 834.629 786.4 819.162 796.8C803.962 807.2 790.896 816.267 779.962 824C775.162 837.6 772.763 850.267 772.763 862C772.763 873.467 775.829 882 781.962 887.6C788.362 893.2 798.896 896 813.562 896C828.496 896 845.562 890.8 864.763 880.4C884.229 870 902.629 857.333 919.963 842.4C937.296 827.2 950.096 813.333 958.362 800.8C959.429 799.2 960.496 798.4 961.562 798.4C962.629 798.4 963.162 798.8 963.162 799.6C963.162 800.4 962.896 801.333 962.362 802.4C932.763 840.8 897.029 870.667 855.162 892C834.896 901.6 815.162 906.4 795.962 906.4C759.696 906.4 741.562 893.867 741.562 868.8C741.562 865.067 742.629 858.4 744.763 848.8ZM783.162 816.8C814.629 794.133 837.029 776.667 850.362 764.4C863.696 751.867 870.362 742.133 870.362 735.2C870.362 728.267 867.429 724.8 861.562 724.8C848.496 724.8 834.496 734.267 819.562 753.2C804.629 771.867 792.496 793.067 783.162 816.8Z" fill="#EBF5FF"/>
<path d="M1103 769.6L1081.4 814.4C1108.6 784.533 1141.4 744.933 1179.8 695.6C1218.47 646.267 1246.47 607.067 1263.8 578C1281.13 548.933 1298.87 514.4 1317 474.4C1335.4 434.4 1344.6 406.4 1344.6 390.4C1344.6 382.933 1342.2 379.2 1337.4 379.2C1328.07 379.2 1316.6 386.533 1303 401.2C1289.4 415.867 1275.67 434.667 1261.8 457.6C1237.53 498.133 1216.87 536 1199.8 571.2L1107 762.4C1107.53 764.533 1107.8 766.667 1107.8 768.8C1107.8 770.933 1107 772 1105.4 772C1104.6 772 1103.8 771.2 1103 769.6ZM1091.8 744.8C1083.27 731.467 1071 724.8 1055 724.8C1039.27 724.8 1022.6 732.267 1005 747.2C987.667 762.133 973.667 780 963 800.8C952.333 821.6 947 841.067 947 859.2C947 877.333 954.467 886.4 969.4 886.4C989.4 886.4 1014.73 873.6 1045.4 848C1049.93 831.733 1065.4 797.333 1091.8 744.8ZM1095.8 736L1171.8 583.2C1195.27 535.2 1211 504.933 1219 492.4C1227.27 479.867 1235.67 467.333 1244.2 454.8C1253 442 1261.13 431.6 1268.6 423.6C1289.13 402 1308.07 386.133 1325.4 376C1334.47 370.667 1341.93 368 1347.8 368C1357.4 368 1362.2 374.667 1362.2 388C1362.2 418.4 1354.33 450.4 1338.6 484C1322.87 517.333 1301.67 553.067 1275 591.2C1256.87 617.6 1225 657.867 1179.4 712C1134.07 766.133 1099.8 804.8 1076.6 828C1071.27 841.6 1068.6 853.6 1068.6 864C1068.6 881.067 1078.07 889.6 1097 889.6C1115.93 889.6 1138.87 879.067 1165.8 858C1193 836.667 1212.07 817.6 1223 800.8C1224.07 799.2 1225.13 798.4 1226.2 798.4C1227.27 798.4 1227.8 798.8 1227.8 799.6C1227.8 800.4 1227.53 801.333 1227 802.4C1212.6 821.6 1198.2 837.467 1183.8 850C1169.67 862.533 1152.73 874.533 1133 886C1113.53 897.467 1096.87 903.2 1083 903.2C1069.4 903.2 1059.13 900.133 1052.2 894C1045.53 887.6 1042.2 879.2 1042.2 868.8C1042.2 864 1042.73 859.467 1043.8 855.2C1007.8 885.067 976.333 900 949.4 900C927 900 915.8 886.4 915.8 859.2C915.8 839.467 922.733 818.4 936.6 796C950.733 773.333 968.733 754.267 990.6 738.8C1012.73 723.067 1033.4 715.2 1052.6 715.2C1071.8 715.2 1086.2 722.133 1095.8 736Z" fill="#EBF5FF"/>
<path d="M1337.26 832.8C1364.46 805.6 1378.06 787.467 1378.06 778.4C1378.06 776.267 1376.99 775.2 1374.86 775.2C1369.52 775.2 1356.99 794.4 1337.26 832.8ZM1329.26 724.8C1312.46 724.8 1295.26 732.267 1277.66 747.2C1260.32 762.133 1246.32 780 1235.66 800.8C1224.99 821.6 1219.66 841.067 1219.66 859.2C1219.66 877.333 1227.12 886.4 1242.06 886.4C1258.59 886.4 1276.99 878.933 1297.26 864C1302.86 844.267 1314.32 822.667 1331.66 799.2C1347.66 776.533 1360.99 763.2 1371.66 759.2C1362.59 736.267 1348.46 724.8 1329.26 724.8ZM1327.66 715.2C1353.26 715.2 1370.06 729.333 1378.06 757.6C1384.99 757.6 1388.46 760.533 1388.46 766.4C1388.46 773.6 1387.26 779.6 1384.86 784.4C1382.46 788.933 1380.59 792.4 1379.26 794.8C1378.19 796.933 1376.19 799.733 1373.26 803.2C1370.06 806.667 1367.92 809.067 1366.86 810.4C1355.92 822.667 1344.46 834.133 1332.46 844.8C1328.19 858.667 1326.06 868 1326.06 872.8C1326.06 884 1334.99 889.6 1352.86 889.6C1370.72 889.6 1392.86 878.933 1419.26 857.6C1445.92 836.267 1464.72 817.333 1475.66 800.8C1476.72 799.2 1477.79 798.4 1478.86 798.4C1479.92 798.4 1480.46 798.8 1480.46 799.6C1480.46 800.4 1480.19 801.333 1479.66 802.4C1465.26 821.6 1450.86 837.467 1436.46 850C1422.32 862.533 1404.86 874.8 1384.06 886.8C1363.52 898.8 1344.72 904.8 1327.66 904.8C1306.32 904.8 1295.66 896.267 1295.66 879.2C1295.66 878.4 1295.79 877.2 1296.06 875.6C1296.32 874 1296.46 872.8 1296.46 872C1266.32 890.667 1241.52 900 1222.06 900C1199.66 900 1188.46 886.4 1188.46 859.2C1188.46 839.467 1195.39 818.4 1209.26 796C1223.39 773.333 1241.39 754.267 1263.26 738.8C1285.39 723.067 1306.86 715.2 1327.66 715.2Z" fill="#EBF5FF"/>
<defs>
<linearGradient id="paint0_linear_1061_342" x1="373" y1="445" x2="373" y2="945" gradientUnits="userSpaceOnUse">
<stop stop-color="#EBF5FF"/>
<stop offset="1" stop-color="#36404A" stop-opacity="0.5"/>
</linearGradient>
<radialGradient id="paint1_radial_1061_342" cx="0" cy="0" r="1" gradientUnits="userSpaceOnUse" gradientTransform="translate(373 329.385) rotate(90) scale(115.385 100)">
<stop stop-color="#EBF5FF"/>
<stop offset="1" stop-color="#36404A"/>
</radialGradient>
</defs>
</svg>
